arm26_states
nRows=18
nColumns=17

# SIMM Motion File Header:
name arm26_states
datacolumns 17
datarows 18
otherdata 1
range 0.00000000000000000000 0.00131071000000000010
endheader
time	r_shoulder_elev	r_elbow_flex	r_shoulder_elev_u	r_elbow_flex_u	TRIlong.activation	TRIlong.fiber_length	TRIlat.activation	TRIlat.fiber_length	TRImed.activation	TRImed.fiber_length	BIClong.activation	BIClong.fiber_length	BICshort.activation	BICshort.fiber_length	BRA.activation	BRA.fiber_length
      0.00000000000000000000	      0.00000000000000000000	      0.00000000000000000000	      0.00000000000000000000	      0.00000000000000000000	      0.01000000000000000000	      0.13654181657517347000	      0.01000000000000000000	      0.07065119668960781500	      0.01000000000000000000	      0.06569679035788460200	      0.01000000000000000000	      0.14840752511492677000	      0.01000000000000000000	      0.14766823914201072000	      0.01000000000000000000	      0.09339079059267638100
      0.00000001000000000000	     -0.00000000000002550487	      0.00000000000009132876	     -0.00000510097289212129	      0.00001826574503707700	      0.01000000007431987200	      0.13654181657515219000	      0.01000000028288139700	      0.07065119668923684800	      0.01000000030019138600	      0.06569679035742510800	      0.01000007276817088000	      0.14840752511488345000	      0.01000000196130695400	      0.14766823914185345000	      0.01000000144787935700	      0.09339079059267463300
      0.00000003000000000000	     -0.00000000000022954383	      0.00000000000082195871	     -0.00001530291866349829	      0.00005479723507449098	      0.01000000022295928500	      0.13654181657510964000	      0.01000000084864519300	      0.07065119668849489900	      0.01000000090057509600	      0.06569679035650609300	      0.01000021830435105100	      0.14840752511478422000	      0.01000000588392449700	      0.14766823914153851000	      0.01000000434363382100	      0.09339079059267092800
      0.00000007000000000000	     -0.00000000000124973858	      0.00000000000447510832	     -0.00003570681015473463	      0.00012786021500267643	      0.01000000052023678800	      0.13654181657502443000	      0.01000000198017677800	      0.07065119668701083700	      0.01000000210134628300	      0.06569679035466788300	      0.01000050937606504500	      0.14840752511453573000	      0.01000001372917412800	      0.14766823914090701000	      0.01000001013512575800	      0.09339079059266271200
      0.00000015000000000000	     -0.00000000000573859537	      0.00000000002054896629	     -0.00007651459293073972	      0.00027398617427510193	      0.01000000111478649400	      0.13654181657485373000	      0.01000000424325592600	      0.07065119668404205900	      0.01000000450290372500	      0.06569679035099081100	      0.01000109151690764500	      0.14840752511383867000	      0.01000002941973156800	      0.14766823913963736000	      0.01000002171804166900	      0.09339079059264307500
      0.00000031000000000000	     -0.00000000002451017811	      0.00000000008776691711	     -0.00015813015765372149	      0.00056623809050531065	      0.01000000230386471400	      0.13654181657451134000	      0.01000000876947814200	      0.07065119667810185200	      0.01000000930607886600	      0.06569679034363408400	      0.01000225578825138900	      0.14840752511164435000	      0.01000006080107917000	      0.14766823913707164000	      0.01000004488360163800	      0.09339079059259100500
      0.00000063000000000000	     -0.00000000010122881958	      0.00000000036248375652	     -0.00032136128375748939	      0.00115074191387377120	      0.01000000468193636100	      0.13654181657382250000	      0.01000001782217823900	      0.07065119666621091900	      0.01000001891267016300	      0.06569679032891019600	      0.01000458428957383100	      0.14840752510405547000	      0.01000012356470525300	      0.14766823913183461000	      0.01000009121363418600	      0.09339079059243569900
      0.00000127000000000000	     -0.00000000041136800140	      0.00000000147304117311	     -0.00064782352238907759	      0.00231974952557926920	      0.01000000943774052000	      0.13654181657242859000	      0.01000003592860106000	      0.07065119664238694900	      0.01000003812681679400	      0.06569679029942064600	      0.01000924112676471200	      0.14840752507608018000	      0.01000024909568076800	      0.14766823912093824000	      0.01000018386934988100	      0.09339079059192043100
      0.00000255000000000000	     -0.00000000165845391929	      0.00000000593865085768	     -0.00130074794368983860	      0.00465776461954580010	      0.01000001894799239200	      0.13654181656957581000	      0.01000007214553690400	      0.07065119659457075300	      0.01000007655896591200	      0.06569679024027473600	      0.01001855413937988200	      0.14840752496896970000	      0.01000050017252410500	      0.14766823909745655000	      0.01000036916338497600	      0.09339079059007142400
      0.00000511000000000000	     -0.00000000665985562580	      0.00000002384784893651	     -0.00260659654918497450	      0.00933379437506903250	      0.01000003796307118000	      0.13654181656361145000	      0.01000014459576696300	      0.07065119649826688600	      0.01000015343868527200	      0.06569679012131725300	      0.01003717751793911700	      0.14840752455034878000	      0.01000100238577110800	      0.14766823904374016000	      0.01000073968188036800	      0.09339079058310115200
      0.00001023000000000000	     -0.00000002669157549698	      0.00000009557815600314	     -0.00521829270581461620	      0.01868585283788636400	      0.01000007597153539600	      0.13654181655065564000	      0.01000028956164102300	      0.07065119630298478900	      0.01000030725979007000	      0.06569678988075221300	      0.01007441369153448500	      0.14840752289742173000	      0.01000200705043527400	      0.14766823890931652000	      0.01000148044065507300	      0.09339079055608438800
      0.00002047000000000000	     -0.00000010687065281210	      0.00000038268640842346	     -0.01044167995611413600	      0.03738997099765935300	      0.01000015190174220100	      0.13654181652070069000	      0.01000057975488867700	      0.07065119590181627400	      0.01000061514851668400	      0.06569678938912315600	      0.01014884372991120200	      0.14840751634412566000	      0.01000401733187538900	      0.14766823853267730000	      0.01000296084600467800	      0.09339079044984821600
      0.00004095000000000000	     -0.00000042769106691919	      0.00000153149383797139	     -0.02088842747229479800	      0.07479825528431376100	      0.01000030341568341500	      0.13654181644513422000	      0.01000116118613339800	      0.07065119505780440000	      0.01000123191086083700	      0.06569678836467794700	      0.01029753477344173300	      0.14840749036980794000	      0.01000804169865622400	      0.14766823734959653000	      0.01000591721321563700	      0.09339079002937662700
      0.00008191000000000001	     -0.00000171117757878048	      0.00000612748190000115	     -0.04178176120967404300	      0.14961535383904428000	      0.01000060506098281500	      0.13654181623548217000	      0.01000232821764994600	      0.07065119320898949300	      0.01000246936571353400	      0.06569678615747148700	      0.01059424234077730200	      0.14840738792075422000	      0.01001610561151782000	      0.14766823327507955000	      0.01001181221609093200	      0.09339078836282675700
      0.00016383000000000001	     -0.00000684549031505081	      0.00002451312827952639	     -0.08356736466623615500	      0.29925427917691727000	      0.01000120284760061900	      0.13654181561448092000	      0.01000467887733257100	      0.07065118891496477400	      0.01000495992117015100	      0.06569678116066511600	      0.01118497225244451500	      0.14840698868215602000	      0.01003229386513329300	      0.14766821837831787000	      0.01002353163360652400	      0.09339078177685845900
      0.00032767000000000001	     -0.00002738287956371455	      0.00009806204780510167	     -0.16713109142856250000	      0.59857041414296019000	      0.01000237661411035300	      0.13654181381731401000	      0.01000944595248196900	      0.07065117830769616900	      0.01001000302041655400	      0.06569676923521276800	      0.01235579324507905300	      0.14840547224198972000	      0.01006490978715894900	      0.14766816226161508000	      0.01004669079865118000	      0.09339075596606011300
      0.00065535000000000007	     -0.00010952418962669589	      0.00039231547799390890	     -0.33420477522444247000	      1.19748860529789320000	      0.01000463856836416300	      0.13654180990264975000	      0.01001923815613841300	      0.07065115182685691200	      0.01002033248720452100	      0.06569674069681610800	      0.01465568398325346600	      0.14840000690080810000	      0.01013108119557525900	      0.14766794980367504000	      0.01009191158606531300	      0.09339065642301787300
      0.00131071000000000010	     -0.00043795184746232553	      0.00157006917147709440	     -0.66797374938764109000	      2.39723296128320840000	      0.01000883294997341500	      0.13654181276433319000	      0.01003981621557436900	      0.07065109849336433100	      0.01004192814200777600	      0.06569668708674356000	      0.01909469942286158600	      0.14838222599011899000	      0.01026704186932129100	      0.14766716050487586000	      0.01017812699764922300	      0.09339028212714720100
